<svg xmlns="http://www.w3.org/2000/svg" viewBox="0 0 298.01 115.07"><defs><style>.cls-1{isolation:isolate;font-size:67.8px;font-family:ArialMT, Arial;letter-spacing:0.06em;}.cls-1,.cls-2{fill:#2c3b39;}</style></defs><title>Ресурс 1</title><g id="Слой_2" data-name="Слой 2"><g id="svg-editor-canvas"><g id="logo_item--business" data-name="logo  item--business"><text class="cls-1" transform="translate(127.23 93.06)">BMM</text></g><g id="logo_item--logo_0" data-name="logo  item--logo 0"><path class="cls-2" d="M97.21,88.7H92.53v4.68a4.73,4.73,0,0,0,4.68,4.68h4.68a4.72,4.72,0,0,0,4.67-4.68V86.15S104.69,88.7,97.21,88.7Z"/><path class="cls-2" d="M13,86.15v7.23a4.73,4.73,0,0,0,4.68,4.68h4.68A4.72,4.72,0,0,0,27,93.38V88.7H22.37C14.88,88.7,13,86.15,13,86.15Z"/><path class="cls-2" d="M108.94,38.1a10.71,10.71,0,0,0-10.12,7.06l-5.1,11.48a117,117,0,0,0-33.59-5.1c-17.69,0-33.85,4.93-34.19,5.19L21.09,45.92A10.68,10.68,0,0,0,10.8,38.19,10.77,10.77,0,0,0,8,59.36l2,17.27c2.12,7.31,12.58,7.48,12.58,7.48H97.46s10.46-.17,12.59-7.48l2-17.18A10.88,10.88,0,0,0,120,49.07,11.24,11.24,0,0,0,108.94,38.1Z"/><path class="cls-2" d="M26.28,43.88l2.38,5.28c2.3-.85,7.65-1.62,13.69-2.3a68.69,68.69,0,0,0-6.29-12.67,57.42,57.42,0,0,0-13.69-15,38.93,38.93,0,0,0-5.45-3.49A22.59,22.59,0,0,0,9.18,32.57v.09c.52,0,.94-.17,1.45-.17A16.56,16.56,0,0,1,26.28,43.88Z"/><path class="cls-2" d="M86.07,34.27a70.07,70.07,0,0,0-6.38,12.85c5,.51,9.27,1.19,11.22,2l2.64-6a16.59,16.59,0,0,1,15.31-10.54,7.86,7.86,0,0,1,1.44.17v-.09a22.1,22.1,0,0,0-6.71-16,50.52,50.52,0,0,0-6,4.26A55.67,55.67,0,0,0,86.07,34.27Z"/><path class="cls-2" d="M38,34.27A82,82,0,0,1,42.44,47c6-.6,12.5-.94,17.69-.94,5.61,0,13.18.43,19.56,1.11A85.09,85.09,0,0,1,84.2,34.27,59,59,0,0,1,94.4,18.45a49.5,49.5,0,0,1,5.44-5,23.55,23.55,0,0,0-5.18-2.38h-.17a25.65,25.65,0,0,0-3.66-.85,5,5,0,0,0-.85.59C80.28,17.26,74.5,26.7,71.1,34.27A61.18,61.18,0,0,0,67.1,46a101.35,101.35,0,0,1,2.55-11.74C73,23,78.16,15.22,83.35,10a29.41,29.41,0,0,1,2.55-2.3c-.09-.09-.26-.17-.34-.26C79.6,3.06,68.89,0,60.13,0,51.71,0,41.5,2.89,35.46,7.06c1.11.93,2.3,2,3.49,3.06,5.19,5.19,10.38,12.93,13.69,24.24a82.55,82.55,0,0,1,2.55,11.73,61.31,61.31,0,0,0-4-11.73c-3.49-7.74-9.61-17.61-19.82-24.07-.08,0-.08-.08-.17-.08a22.55,22.55,0,0,0-9.78,2.55A45.5,45.5,0,0,1,26,16.58,58.93,58.93,0,0,1,38,34.27Z"/></g></g></g></svg>